<svg xmlns="http://www.w3.org/2000/svg" viewBox="0 0 1284 1152" width="1284" height="1152" preserveAspectRatio="xMidYMid meet" style="width: 100%; height: 100%; transform: translate3d(0px, 0px, 0px);"><defs><clipPath id="__lottie_element_2"><rect width="1284" height="1152" x="0" y="0"></rect></clipPath><linearGradient id="__lottie_element_9" spreadMethod="pad" gradientUnits="userSpaceOnUse" x1="1156.2850341796875" y1="-358.60198974609375" x2="1156.2850341796875" y2="-376.531005859375"><stop offset="0%" stop-color="rgb(182,183,175)"></stop><stop offset="19%" stop-color="rgb(143,144,132)"></stop><stop offset="83%" stop-color="rgb(103,105,89)"></stop></linearGradient><linearGradient id="__lottie_element_10" spreadMethod="pad" gradientUnits="userSpaceOnUse" x1="1927.678955078125" y1="433.5830078125" x2="1927.678955078125" y2="417.7969970703125"><stop offset="0%" stop-color="rgb(182,183,175)"></stop><stop offset="19%" stop-color="rgb(143,144,132)"></stop><stop offset="83%" stop-color="rgb(103,105,89)"></stop></linearGradient><linearGradient id="__lottie_element_11" spreadMethod="pad" gradientUnits="userSpaceOnUse" x1="1755.2640380859375" y1="614.3300170898438" x2="1755.2640380859375" y2="598.2509765625"><stop offset="0%" stop-color="rgb(182,183,175)"></stop><stop offset="19%" stop-color="rgb(143,144,132)"></stop><stop offset="83%" stop-color="rgb(103,105,89)"></stop></linearGradient><linearGradient id="__lottie_element_12" spreadMethod="pad" gradientUnits="userSpaceOnUse" x1="2065.5009765625" y1="381.3680114746094" x2="2065.5009765625" y2="370.4549865722656"><stop offset="0%" stop-color="rgb(182,183,175)"></stop><stop offset="19%" stop-color="rgb(143,144,132)"></stop><stop offset="83%" stop-color="rgb(103,105,89)"></stop></linearGradient><linearGradient id="__lottie_element_13" spreadMethod="pad" gradientUnits="userSpaceOnUse" x1="1557.134033203125" y1="820.7670288085938" x2="1557.134033203125" y2="715.9229736328125"><stop offset="0%" stop-color="rgb(182,183,175)"></stop><stop offset="19%" stop-color="rgb(143,144,132)"></stop><stop offset="83%" stop-color="rgb(103,105,89)"></stop></linearGradient><linearGradient id="__lottie_element_14" spreadMethod="pad" gradientUnits="userSpaceOnUse" x1="1964.845947265625" y1="200.6929931640625" x2="1964.845947265625" y2="183.95799255371094"><stop offset="0%" stop-color="rgb(182,183,175)"></stop><stop offset="19%" stop-color="rgb(143,144,132)"></stop><stop offset="83%" stop-color="rgb(103,105,89)"></stop></linearGradient><linearGradient id="__lottie_element_15" spreadMethod="pad" gradientUnits="userSpaceOnUse" x1="-47.994998931884766" y1="0.2529999911785126" x2="48.33300018310547" y2="0.2529999911785126"><stop offset="0%" stop-color="rgb(182,183,175)"></stop><stop offset="19%" stop-color="rgb(143,144,132)"></stop><stop offset="83%" stop-color="rgb(103,105,89)"></stop></linearGradient><linearGradient id="__lottie_element_16" spreadMethod="pad" gradientUnits="userSpaceOnUse" x1="-12.715999603271484" y1="0.009999999776482582" x2="13.63700008392334" y2="0.009999999776482582"><stop offset="0%" stop-color="rgb(182,183,175)"></stop><stop offset="19%" stop-color="rgb(143,144,132)"></stop><stop offset="83%" stop-color="rgb(103,105,89)"></stop></linearGradient><linearGradient id="__lottie_element_17" spreadMethod="pad" gradientUnits="userSpaceOnUse" x1="-11.812999725341797" y1="0.949999988079071" x2="13.182999610900879" y2="0.949999988079071"><stop offset="0%" stop-color="rgb(182,183,175)"></stop><stop offset="19%" stop-color="rgb(143,144,132)"></stop><stop offset="83%" stop-color="rgb(103,105,89)"></stop></linearGradient><linearGradient id="__lottie_element_18" spreadMethod="pad" gradientUnits="userSpaceOnUse" x1="-6.802999973297119" y1="0.020999999716877937" x2="7.171000003814697" y2="0.020999999716877937"><stop offset="0%" stop-color="rgb(182,183,175)"></stop><stop offset="19%" stop-color="rgb(143,144,132)"></stop><stop offset="83%" stop-color="rgb(103,105,89)"></stop></linearGradient><linearGradient id="__lottie_element_19" spreadMethod="pad" gradientUnits="userSpaceOnUse" x1="-7.843999862670898" y1="7.77400016784668" x2="10.359999656677246" y2="-8.416999816894531"><stop offset="0%" stop-color="rgb(182,183,175)"></stop><stop offset="19%" stop-color="rgb(143,144,132)"></stop><stop offset="83%" stop-color="rgb(103,105,89)"></stop></linearGradient><linearGradient id="__lottie_element_20" spreadMethod="pad" gradientUnits="userSpaceOnUse" x1="-9.928999900817871" y1="0.29600000381469727" x2="11.387999534606934" y2="0.29600000381469727"><stop offset="0%" stop-color="rgb(182,183,175)"></stop><stop offset="19%" stop-color="rgb(143,144,132)"></stop><stop offset="83%" stop-color="rgb(103,105,89)"></stop></linearGradient><linearGradient id="__lottie_element_24" spreadMethod="pad" gradientUnits="userSpaceOnUse" x1="1156.2850341796875" y1="-358.60198974609375" x2="1156.2850341796875" y2="-376.531005859375"><stop offset="0%" stop-color="rgb(182,183,175)"></stop><stop offset="19%" stop-color="rgb(143,144,132)"></stop><stop offset="83%" stop-color="rgb(103,105,89)"></stop></linearGradient><linearGradient id="__lottie_element_25" spreadMethod="pad" gradientUnits="userSpaceOnUse" x1="1927.678955078125" y1="433.5830078125" x2="1927.678955078125" y2="417.7969970703125"><stop offset="0%" stop-color="rgb(182,183,175)"></stop><stop offset="19%" stop-color="rgb(143,144,132)"></stop><stop offset="83%" stop-color="rgb(103,105,89)"></stop></linearGradient><linearGradient id="__lottie_element_26" spreadMethod="pad" gradientUnits="userSpaceOnUse" x1="1755.2640380859375" y1="614.3300170898438" x2="1755.2640380859375" y2="598.2509765625"><stop offset="0%" stop-color="rgb(182,183,175)"></stop><stop offset="19%" stop-color="rgb(143,144,132)"></stop><stop offset="83%" stop-color="rgb(103,105,89)"></stop></linearGradient><linearGradient id="__lottie_element_27" spreadMethod="pad" gradientUnits="userSpaceOnUse" x1="1274.3900146484375" y1="504.1709899902344" x2="1274.3900146484375" y2="468.26300048828125"><stop offset="0%" stop-color="rgb(182,183,175)"></stop><stop offset="19%" stop-color="rgb(143,144,132)"></stop><stop offset="83%" stop-color="rgb(103,105,89)"></stop></linearGradient><linearGradient id="__lottie_element_28" spreadMethod="pad" gradientUnits="userSpaceOnUse" x1="2065.5009765625" y1="381.3680114746094" x2="2065.5009765625" y2="370.4549865722656"><stop offset="0%" stop-color="rgb(182,183,175)"></stop><stop offset="19%" stop-color="rgb(143,144,132)"></stop><stop offset="83%" stop-color="rgb(103,105,89)"></stop></linearGradient><linearGradient id="__lottie_element_29" spreadMethod="pad" gradientUnits="userSpaceOnUse" x1="1557.134033203125" y1="820.7670288085938" x2="1557.134033203125" y2="715.9229736328125"><stop offset="0%" stop-color="rgb(182,183,175)"></stop><stop offset="19%" stop-color="rgb(143,144,132)"></stop><stop offset="83%" stop-color="rgb(103,105,89)"></stop></linearGradient><linearGradient id="__lottie_element_30" spreadMethod="pad" gradientUnits="userSpaceOnUse" x1="1964.845947265625" y1="200.6929931640625" x2="1964.845947265625" y2="183.95799255371094"><stop offset="0%" stop-color="rgb(182,183,175)"></stop><stop offset="19%" stop-color="rgb(143,144,132)"></stop><stop offset="83%" stop-color="rgb(103,105,89)"></stop></linearGradient><linearGradient id="__lottie_element_31" spreadMethod="pad" gradientUnits="userSpaceOnUse" x1="-47.994998931884766" y1="0.2529999911785126" x2="48.33300018310547" y2="0.2529999911785126"><stop offset="0%" stop-color="rgb(182,183,175)"></stop><stop offset="19%" stop-color="rgb(143,144,132)"></stop><stop offset="83%" stop-color="rgb(103,105,89)"></stop></linearGradient><linearGradient id="__lottie_element_32" spreadMethod="pad" gradientUnits="userSpaceOnUse" x1="-88.81999969482422" y1="264.7860107421875" x2="-60.297000885009766" y2="223.3769989013672"><stop offset="0%" stop-color="rgb(182,183,175)"></stop><stop offset="19%" stop-color="rgb(143,144,132)"></stop><stop offset="83%" stop-color="rgb(103,105,89)"></stop></linearGradient><linearGradient id="__lottie_element_33" spreadMethod="pad" gradientUnits="userSpaceOnUse" x1="-12.715999603271484" y1="0.009999999776482582" x2="13.63700008392334" y2="0.009999999776482582"><stop offset="0%" stop-color="rgb(182,183,175)"></stop><stop offset="19%" stop-color="rgb(143,144,132)"></stop><stop offset="83%" stop-color="rgb(103,105,89)"></stop></linearGradient><linearGradient id="__lottie_element_34" spreadMethod="pad" gradientUnits="userSpaceOnUse" x1="-7.889999866485596" y1="12.498000144958496" x2="-12.524999618530273" y2="-2.0420000553131104"><stop offset="0%" stop-color="rgb(182,183,175)"></stop><stop offset="19%" stop-color="rgb(143,144,132)"></stop><stop offset="83%" stop-color="rgb(103,105,89)"></stop></linearGradient><linearGradient id="__lottie_element_35" spreadMethod="pad" gradientUnits="userSpaceOnUse" x1="-11.812999725341797" y1="0.949999988079071" x2="13.182999610900879" y2="0.949999988079071"><stop offset="0%" stop-color="rgb(182,183,175)"></stop><stop offset="19%" stop-color="rgb(143,144,132)"></stop><stop offset="83%" stop-color="rgb(103,105,89)"></stop></linearGradient><linearGradient id="__lottie_element_36" spreadMethod="pad" gradientUnits="userSpaceOnUse" x1="-6.802999973297119" y1="0.020999999716877937" x2="7.171000003814697" y2="0.020999999716877937"><stop offset="0%" stop-color="rgb(182,183,175)"></stop><stop offset="19%" stop-color="rgb(143,144,132)"></stop><stop offset="83%" stop-color="rgb(103,105,89)"></stop></linearGradient><linearGradient id="__lottie_element_37" spreadMethod="pad" gradientUnits="userSpaceOnUse" x1="-7.843999862670898" y1="7.77400016784668" x2="10.359999656677246" y2="-8.416999816894531"><stop offset="0%" stop-color="rgb(182,183,175)"></stop><stop offset="19%" stop-color="rgb(143,144,132)"></stop><stop offset="83%" stop-color="rgb(103,105,89)"></stop></linearGradient><linearGradient id="__lottie_element_38" spreadMethod="pad" gradientUnits="userSpaceOnUse" x1="-9.928999900817871" y1="0.29600000381469727" x2="11.387999534606934" y2="0.29600000381469727"><stop offset="0%" stop-color="rgb(182,183,175)"></stop><stop offset="19%" stop-color="rgb(143,144,132)"></stop><stop offset="83%" stop-color="rgb(103,105,89)"></stop></linearGradient><linearGradient id="__lottie_element_44" spreadMethod="pad" gradientUnits="userSpaceOnUse" x1="1985.9329833984375" y1="-736.9860229492188" x2="1931.6739501953125" y2="-826.697998046875"><stop offset="0%" stop-color="rgb(182,183,175)"></stop><stop offset="19%" stop-color="rgb(143,144,132)"></stop><stop offset="83%" stop-color="rgb(103,105,89)"></stop></linearGradient><linearGradient id="__lottie_element_45" spreadMethod="pad" gradientUnits="userSpaceOnUse" x1="1985.9329833984375" y1="-736.9860229492188" x2="1931.6739501953125" y2="-826.697998046875"><stop offset="0%" stop-color="rgb(182,183,175)"></stop><stop offset="19%" stop-color="rgb(143,144,132)"></stop><stop offset="83%" stop-color="rgb(103,105,89)"></stop></linearGradient><linearGradient id="__lottie_element_46" spreadMethod="pad" gradientUnits="userSpaceOnUse" x1="1985.9329833984375" y1="-736.9860229492188" x2="1931.6739501953125" y2="-826.697998046875"><stop offset="0%" stop-color="rgb(182,183,175)"></stop><stop offset="19%" stop-color="rgb(143,144,132)"></stop><stop offset="83%" stop-color="rgb(103,105,89)"></stop></linearGradient><linearGradient id="__lottie_element_59" spreadMethod="pad" gradientUnits="userSpaceOnUse" x1="1156.2850341796875" y1="-358.60198974609375" x2="1156.2850341796875" y2="-376.531005859375"><stop offset="0%" stop-color="rgb(182,183,175)"></stop><stop offset="19%" stop-color="rgb(143,144,132)"></stop><stop offset="83%" stop-color="rgb(103,105,89)"></stop></linearGradient><linearGradient id="__lottie_element_60" spreadMethod="pad" gradientUnits="userSpaceOnUse" x1="1653.2530517578125" y1="-679.2789916992188" x2="1645.885009765625" y2="-693.239990234375"><stop offset="0%" stop-color="rgb(182,183,175)"></stop><stop offset="19%" stop-color="rgb(143,144,132)"></stop><stop offset="83%" stop-color="rgb(103,105,89)"></stop></linearGradient><linearGradient id="__lottie_element_61" spreadMethod="pad" gradientUnits="userSpaceOnUse" x1="1755.2640380859375" y1="614.3300170898438" x2="1755.2640380859375" y2="598.2509765625"><stop offset="0%" stop-color="rgb(182,183,175)"></stop><stop offset="19%" stop-color="rgb(143,144,132)"></stop><stop offset="83%" stop-color="rgb(103,105,89)"></stop></linearGradient><linearGradient id="__lottie_element_62" spreadMethod="pad" gradientUnits="userSpaceOnUse" x1="1068.7679443359375" y1="-718.5800170898438" x2="1037.2530517578125" y2="-750.4749755859375"><stop offset="0%" stop-color="rgb(182,183,175)"></stop><stop offset="19%" stop-color="rgb(143,144,132)"></stop><stop offset="83%" stop-color="rgb(103,105,89)"></stop></linearGradient><linearGradient id="__lottie_element_63" spreadMethod="pad" gradientUnits="userSpaceOnUse" x1="747.8159790039062" y1="14.37399959564209" x2="747.8159790039062" y2="3.4600000381469727"><stop offset="0%" stop-color="rgb(182,183,175)"></stop><stop offset="19%" stop-color="rgb(143,144,132)"></stop><stop offset="83%" stop-color="rgb(103,105,89)"></stop></linearGradient><linearGradient id="__lottie_element_64" spreadMethod="pad" gradientUnits="userSpaceOnUse" x1="1985.9329833984375" y1="-736.9860229492188" x2="1931.6739501953125" y2="-826.697998046875"><stop offset="0%" stop-color="rgb(182,183,175)"></stop><stop offset="19%" stop-color="rgb(143,144,132)"></stop><stop offset="83%" stop-color="rgb(103,105,89)"></stop></linearGradient><linearGradient id="__lottie_element_65" spreadMethod="pad" gradientUnits="userSpaceOnUse" x1="647.1610107421875" y1="-165.30099487304688" x2="647.1610107421875" y2="-182.03599548339844"><stop offset="0%" stop-color="rgb(182,183,175)"></stop><stop offset="19%" stop-color="rgb(143,144,132)"></stop><stop offset="83%" stop-color="rgb(103,105,89)"></stop></linearGradient><linearGradient id="__lottie_element_66" spreadMethod="pad" gradientUnits="userSpaceOnUse" x1="-157.55799865722656" y1="140.94200134277344" x2="-128.24400329589844" y2="194.28399658203125"><stop offset="0%" stop-color="rgb(182,183,175)"></stop><stop offset="19%" stop-color="rgb(143,144,132)"></stop><stop offset="83%" stop-color="rgb(103,105,89)"></stop></linearGradient><linearGradient id="__lottie_element_67" spreadMethod="pad" gradientUnits="userSpaceOnUse" x1="-578.7369995117188" y1="489.35699462890625" x2="-612.635986328125" y2="452.2200012207031"><stop offset="0%" stop-color="rgb(182,183,175)"></stop><stop offset="19%" stop-color="rgb(143,144,132)"></stop><stop offset="83%" stop-color="rgb(103,105,89)"></stop></linearGradient><linearGradient id="__lottie_element_68" spreadMethod="pad" gradientUnits="userSpaceOnUse" x1="-6.150000095367432" y1="0.2759999930858612" x2="7.0269999504089355" y2="0.2759999930858612"><stop offset="0%" stop-color="rgb(182,183,175)"></stop><stop offset="19%" stop-color="rgb(143,144,132)"></stop><stop offset="83%" stop-color="rgb(103,105,89)"></stop></linearGradient><linearGradient id="__lottie_element_69" spreadMethod="pad" gradientUnits="userSpaceOnUse" x1="-7.889999866485596" y1="12.498000144958496" x2="-12.524999618530273" y2="-2.0420000553131104"><stop offset="0%" stop-color="rgb(182,183,175)"></stop><stop offset="19%" stop-color="rgb(143,144,132)"></stop><stop offset="83%" stop-color="rgb(103,105,89)"></stop></linearGradient><linearGradient id="__lottie_element_70" spreadMethod="pad" gradientUnits="userSpaceOnUse" x1="-3.6679999828338623" y1="10.454999923706055" x2="7.9070000648498535" y2="-11.699999809265137"><stop offset="0%" stop-color="rgb(182,183,175)"></stop><stop offset="19%" stop-color="rgb(143,144,132)"></stop><stop offset="83%" stop-color="rgb(103,105,89)"></stop></linearGradient><linearGradient id="__lottie_element_71" spreadMethod="pad" gradientUnits="userSpaceOnUse" x1="-6.763999938964844" y1="0.9539999961853027" x2="7.210999965667725" y2="0.9539999961853027"><stop offset="0%" stop-color="rgb(182,183,175)"></stop><stop offset="19%" stop-color="rgb(143,144,132)"></stop><stop offset="83%" stop-color="rgb(103,105,89)"></stop></linearGradient><linearGradient id="__lottie_element_72" spreadMethod="pad" gradientUnits="userSpaceOnUse" x1="-13.11299991607666" y1="324.50299072265625" x2="5.091000080108643" y2="308.3110046386719"><stop offset="0%" stop-color="rgb(182,183,175)"></stop><stop offset="19%" stop-color="rgb(143,144,132)"></stop><stop offset="83%" stop-color="rgb(103,105,89)"></stop></linearGradient><linearGradient id="__lottie_element_73" spreadMethod="pad" gradientUnits="userSpaceOnUse" x1="-9.928999900817871" y1="0.29600000381469727" x2="11.387999534606934" y2="0.29600000381469727"><stop offset="0%" stop-color="rgb(182,183,175)"></stop><stop offset="19%" stop-color="rgb(143,144,132)"></stop><stop offset="83%" stop-color="rgb(103,105,89)"></stop></linearGradient></defs><g clip-path="url(#__lottie_element_2)"><g transform="matrix(0.9999985098838806,-0.001739489147439599,0.001739489147439599,0.9999985098838806,659.3871459960938,860.6890869140625)" opacity="1" style="display: block;"><g opacity="1" transform="matrix(1,0,0,1,0,0)"><path fill="rgb(241,241,241)" fill-opacity="1" d=" M546.6060180664062,278.635986328125 C546.6060180664062,278.635986328125 -546.6060180664062,278.635986328125 -546.6060180664062,278.635986328125 C-582.7310180664062,278.635986328125 -612.0150146484375,249.3520050048828 -612.0150146484375,213.2270050048828 C-612.0150146484375,213.2270050048828 -612.0150146484375,-278.635986328125 -612.0150146484375,-278.635986328125 C-612.0150146484375,-278.635986328125 612.0150146484375,-278.635986328125 612.0150146484375,-278.635986328125 C612.0150146484375,-278.635986328125 612.0150146484375,213.2270050048828 612.0150146484375,213.2270050048828 C612.0150146484375,249.3520050048828 582.7310180664062,278.635986328125 546.6060180664062,278.635986328125z"></path><path stroke-linecap="butt" stroke-linejoin="miter" fill-opacity="0" stroke-miterlimit="10" stroke="rgb(29,32,33)" stroke-opacity="1" stroke-width="7.221" d=" M546.6060180664062,278.635986328125 C546.6060180664062,278.635986328125 -546.6060180664062,278.635986328125 -546.6060180664062,278.635986328125 C-582.7310180664062,278.635986328125 -612.0150146484375,249.3520050048828 -612.0150146484375,213.2270050048828 C-612.0150146484375,213.2270050048828 -612.0150146484375,-278.635986328125 -612.0150146484375,-278.635986328125 C-612.0150146484375,-278.635986328125 612.0150146484375,-278.635986328125 612.0150146484375,-278.635986328125 C612.0150146484375,-278.635986328125 612.0150146484375,213.2270050048828 612.0150146484375,213.2270050048828 C612.0150146484375,249.3520050048828 582.7310180664062,278.635986328125 546.6060180664062,278.635986328125z"></path></g></g><g transform="matrix(-0.40800002217292786,0,0,-0.9240000247955322,1075.3236083984375,1716.2518310546875)" opacity="0.22" style="display: block;"><g opacity="1" transform="matrix(1,0,0,1,1030.39794921875,852.7150268554688)"><path fill="url(#__lottie_element_59)" fill-opacity="1" d=" M-5.045000076293945,-0.6930000185966492 C-3.250999927520752,-0.25600001215934753 -4.247000217437744,-3.8499999046325684 5.045000076293945,8.96500015258789 C1.2130000591278076,0.5360000133514404 -1.194000005722046,-20.566999435424805 -5.045000076293945,-0.6930000185966492z"></path></g><g opacity="1" transform="matrix(1,0,0,1,1606.9720458984375,807.8330078125)"><path fill="url(#__lottie_element_60)" fill-opacity="1" d=" M-7.314000129699707,-5.379000186920166 C-4.110000133514404,-0.42899999022483826 -1.0399999618530273,4.015999794006348 2.552000045776367,7.263000011444092 C12.717000007629395,-3.061000108718872 5.2870001792907715,-11.053000450134277 -7.314000129699707,-5.379000186920166z"></path></g><g opacity="1" transform="matrix(1,0,0,1,1816.3299560546875,1039.7359619140625)"><path fill="url(#__lottie_element_61)" fill-opacity="1" d=" M-2.9040000438690186,-8.039999961853027 C-2.5290000438690186,-2.6459999084472656 -2.055999994277954,2.7880001068115234 -1.965000033378601,8.039999961853027 C1.7589999437332153,0.37400001287460327 7.25600004196167,-4.324999809265137 -2.9040000438690186,-8.039999961853027z"></path></g><g opacity="1" transform="matrix(1,0,0,1,1378.0369873046875,1086.6920166015625)"><path fill="url(#__lottie_element_62)" fill-opacity="1" d=" M-13.442000389099121,5.426000118255615 C-1.5080000162124634,11.87600040435791 -3.63100004196167,-6.691999912261963 5.791999816894531,11.157999992370605 C10.178999900817871,15.008000373840332 18.756000518798828,18.39900016784668 19.329999923706055,10.48799991607666 C7.864999771118164,3.615000009536743 5.388000011444092,-8.763999938964844 -4.7729997634887695,-15.291000366210938 C-5.579999923706055,-1.4010000228881836 -30.33799934387207,-29.70199966430664 -13.442000389099121,5.426000118255615z"></path></g><g opacity="1" transform="matrix(1,0,0,1,1014.3740234375,1245.1839599609375)"><path fill="url(#__lottie_element_63)" fill-opacity="1" d=" M-1.2380000352859497,5.456999778747559 C-2.190000057220459,0.765999972820282 0.8889999985694885,-4.321000099182129 0.37400001287460327,3.055000066757202 C7.626999855041504,-1.2020000219345093 -6.61299991607666,-15.01099967956543 -1.2380000352859497,5.456999778747559z"></path></g><g opacity="1" transform="matrix(1,0,0,1,1829.14501953125,773.2899780273438)"><path fill="url(#__lottie_element_64)" fill-opacity="1" d=" M-28.650999069213867,-33.11399841308594 C-23.785999298095703,-12.045000076293945 -1.7330000400543213,-1.9420000314712524 2.378999948501587,18.452999114990234 C11.567000389099121,29.55699920654297 38.79899978637695,61.895999908447266 24.65399932861328,32.099998474121094 C24.273000717163086,41.4119987487793 18.4689998626709,22.503999710083008 17.138999938964844,17.93400001525879 C-8.569999694824219,6.857999801635742 13.338000297546387,5.854000091552734 -12.88700008392334,-13.689000129699707 C-6.250999927520752,-20.607999801635742 -20.132999420166016,-32.680999755859375 -27.73699951171875,-44.39099884033203 C-24.298999786376953,-37.34299850463867 -22.608999252319336,-32.013999938964844 -28.650999069213867,-33.11399841308594z"></path></g><g opacity="1" transform="matrix(1,0,0,1,872.698974609375,1203.8389892578125)"><path fill="url(#__lottie_element_65)" fill-opacity="1" d=" M-0.0820000022649765,8.199000358581543 C5.166999816894531,9.871000289916992 2.6389999389648438,-1.3109999895095825 0.19900000095367432,-6.4629998207092285 C-3.322000026702881,0.47699999809265137 0.5199999809265137,-10.307000160217285 -2.9749999046325684,-8.050999641418457 C-3.377000093460083,-1.996000051498413 1.0479999780654907,0.8330000042915344 -0.0820000022649765,8.199000358581543z"></path></g><g opacity="1" transform="matrix(1,0,0,1,406.364013671875,768.0380249023438)"><path fill="url(#__lottie_element_66)" fill-opacity="1" d=" M8.732000350952148,29.92099952697754 C12.027999877929688,29.702999114990234 8.295000076293945,27.416000366210938 7.931000232696533,26.211999893188477 C15.918999671936035,23.808000564575195 2.1740000247955322,24.378000259399414 1.809000015258789,19.06399917602539 C9.491999626159668,17.107999801635742 0.38199999928474426,12.54800033569336 2.4779999256134033,7.165999889373779 C0.7300000190734863,7.47599983215332 2.059000015258789,10.472000122070312 -0.8190000057220459,10.593999862670898 C2.0139999389648438,3.11299991607666 -9.251999855041504,-10.746000289916992 -8.621000289916992,-21.02899932861328 C2.1040000915527344,-17.809999465942383 -8.621999740600586,-21.18400001525879 -7.298999786376953,-30.3700008392334 C-19.701000213623047,-10.713000297546387 8.845999717712402,35.400001525878906 8.732000350952148,29.92099952697754z"></path></g><g opacity="1" transform="matrix(1,0,0,1,654.4039916992188,1126.5240478515625)"><path fill="url(#__lottie_element_67)" fill-opacity="1" d=" M-28.392000198364258,-1.375 C-26.39900016784668,-6.164000034332275 -6.849999904632568,3.7249999046325684 -5.24399995803833,4.875999927520752 C2.375999927520752,-5.781000137329102 -12.680999755859375,-13.795000076293945 -4.966000080108643,-10.5600004196167 C1.8329999446868896,-20.989999771118164 3.996999979019165,-5.13700008392334 13.0600004196167,-5.5269999504089355 C11.713000297546387,-3.0850000381469727 7.932000160217285,-6.578000068664551 6.293000221252441,-2.361999988555908 C18.850000381469727,-2.7839999198913574 -0.46299999952316284,5.326000213623047 15.142999649047852,9.597999572753906 C15.791999816894531,-7.97599983215332 15.373000144958496,9.678000450134277 29.697999954223633,12.364999771118164 C-5.806000232696533,20.841999053955078 -36.479000091552734,-4.318999767303467 -28.392000198364258,-1.375z"></path></g><g opacity="1" transform="matrix(1,0,0,1,842.1500244140625,761.7239990234375)"><path fill="url(#__lottie_element_68)" fill-opacity="1" d=" M6.5879998207092285,-2.2760000228881836 C6.031000137329102,-10.09000015258789 -3.5,-4.9029998779296875 -6.5879998207092285,-0.5979999899864197 C-5.258999824523926,1.7450000047683716 -2.318000078201294,6.947000026702881 0.9539999961853027,6.250999927520752 C0.6159999966621399,4.556000232696533 -2.621000051498413,2.0820000171661377 -1.6009999513626099,-0.4490000009536743 C0.8299999833106995,0.6079999804496765 0.5400000214576721,3.318000078201294 3.7160000801086426,4.5879998207092285 C6.797999858856201,0.7379999756813049 -2.8889999389648438,-3.180999994277954 6.5879998207092285,-2.2760000228881836z"></path></g><g opacity="1" transform="matrix(1,0,0,1,1045.510986328125,1227.31298828125)"><path fill="url(#__lottie_element_69)" fill-opacity="1" d=" M-3.809000015258789,-7.021999835968018 C-10.864999771118164,-4.0960001945495605 -2.697999954223633,4.888000011444092 2.382999897003174,7.021999835968018 C4.090000152587891,4.861999988555908 7.881999969482422,0.07699999958276749 6.085000038146973,-3.3269999027252197 C4.63100004196167,-2.453000068664551 3.4739999771118164,1.8509999513626099 0.7670000195503235,1.4739999771118164 C0.8920000195503235,-1.5210000276565552 3.509000062942505,-2.003000020980835 3.571000099182129,-5.882999897003174 C-1.0850000381469727,-8.145000457763672 -1.315000057220459,3.7039999961853027 -3.809000015258789,-7.021999835968018z"></path></g><g opacity="1" transform="matrix(1,0,0,1,143.96499633789062,1273.4100341796875)"><path fill="url(#__lottie_element_70)" fill-opacity="1" d=" M-15.461000442504883,3.119999885559082 C-7.801000118255615,21.176000595092773 -4.107999801635742,-12.612000465393066 5.580999851226807,-3.002000093460083 C12.711000442504883,-2.5230000019073486 7.073999881744385,7.395999908447266 15.461000442504883,3.325000047683716 C15.574000358581543,-20.67799949645996 -7.28000020980835,-1.5570000410079956 -15.461000442504883,3.119999885559082z"></path></g><g opacity="1" transform="matrix(1,0,0,1,554.7639770507812,853.0460205078125)"><path fill="url(#__lottie_element_71)" fill-opacity="1" d=" M5.193999767303467,-6.140999794006348 C2.2070000171661377,-7.640999794006348 -3.453000068664551,-5.099999904632568 -6.986999988555908,-2.2639999389648438 C0.7390000224113464,-1.909000039100647 -7.473999977111816,5.958000183105469 -1.4179999828338623,6.585999965667725 C-2.3949999809265137,-2.747999906539917 11.890000343322754,1.8489999771118164 5.193999767303467,-6.140999794006348z"></path></g><g opacity="1" transform="matrix(1,0,0,1,548.4580078125,1137.241943359375)"><path fill="url(#__lottie_element_72)" fill-opacity="1" d=" M2.203000068664551,-12.732999801635742 C-3.4260001182556152,-11.22599983215332 -7.855000019073486,-1.3569999933242798 -9.17300033569336,6.432000160217285 C1.3029999732971191,-2.056999921798706 -0.2809999883174896,17.70599937438965 8.336000442504883,11.508000373840332 C-3.750999927520752,0.4819999933242798 20.183000564575195,-10.083000183105469 2.203000068664551,-12.732999801635742z"></path></g><g opacity="1" transform="matrix(1,0,0,1,593.9290161132812,975.7039794921875)"><path fill="url(#__lottie_element_73)" fill-opacity="1" d=" M-10.517999649047852,-16.610000610351562 C13.673999786376953,11.210000038146973 -17.29199981689453,-19.91699981689453 -1.7640000581741333,4.658999919891357 C-9.949000358581543,6.99399995803833 -3.5299999713897705,-4.294000148773193 -10.63700008392334,-0.5270000100135803 C-11.305999755859375,9.263999938964844 4.025000095367432,7.730000019073486 -6.8470001220703125,16.610000610351562 C13.269000053405762,12.312000274658203 -5.631999969482422,12.173999786376953 0.9679999947547913,7.940000057220459 C4.7829999923706055,6.85099983215332 5.933000087738037,9.17300033569336 6.9629998207092285,10.748000144958496 C13.059000015258789,-11.618000030517578 14.25,-10.654000282287598 -10.517999649047852,-16.610000610351562z"></path></g></g><g transform="matrix(0.9999985098838806,-0.001739489147439599,0.001739489147439599,0.9999985098838806,671.03125,698.6045532226562)" opacity="1" style="display: block;"><g opacity="1" transform="matrix(1,0,0,1,0,0)"><path stroke-linecap="round" stroke-linejoin="miter" fill-opacity="0" stroke-miterlimit="10" stroke="rgb(29,32,33)" stroke-opacity="1" stroke-width="7.261" d=" M-548.6519775390625,0 C-548.6519775390625,0 548.6519775390625,0 548.6519775390625,0"></path></g></g><g transform="matrix(0.9999985098838806,-0.001739489147439599,0.001739489147439599,0.9999985098838806,671.2403564453125,818.826416015625)" opacity="1" style="display: block;"><g opacity="1" transform="matrix(1,0,0,1,0,0)"><path stroke-linecap="round" stroke-linejoin="miter" fill-opacity="0" stroke-miterlimit="10" stroke="rgb(29,32,33)" stroke-opacity="1" stroke-width="7.261" d=" M-548.6519775390625,0 C-548.6519775390625,0 548.6519775390625,0 548.6519775390625,0"></path></g></g><g transform="matrix(0.9999985098838806,-0.001739489147439599,0.001739489147439599,0.9999985098838806,671.449462890625,939.0482177734375)" opacity="1" style="display: block;"><g opacity="1" transform="matrix(1,0,0,1,0,0)"><path stroke-linecap="round" stroke-linejoin="miter" fill-opacity="0" stroke-miterlimit="10" stroke="rgb(29,32,33)" stroke-opacity="1" stroke-width="7.261" d=" M-548.6519775390625,0 C-548.6519775390625,0 548.6519775390625,0 548.6519775390625,0"></path></g></g><g transform="matrix(0.9999985098838806,-0.001739489147439599,0.001739489147439599,0.9999985098838806,426.7528381347656,1003.2799682617188)" opacity="1" style="display: block;"><g opacity="1" transform="matrix(1,0,0,1,0,0)"><path stroke-linecap="round" stroke-linejoin="miter" fill-opacity="0" stroke-miterlimit="10" stroke="rgb(29,32,33)" stroke-opacity="1" stroke-width="7.261" d=" M0,-63.805999755859375 C0,-63.805999755859375 0,63.805999755859375 0,63.805999755859375"></path></g></g><g transform="matrix(0.9999985098838806,-0.001739489147439599,0.001739489147439599,0.9999985098838806,916.3651123046875,1002.4282836914062)" opacity="1" style="display: block;"><g opacity="1" transform="matrix(1,0,0,1,0,0)"><path stroke-linecap="round" stroke-linejoin="miter" fill-opacity="0" stroke-miterlimit="10" stroke="rgb(29,32,33)" stroke-opacity="1" stroke-width="7.261" d=" M0,-63.805999755859375 C0,-63.805999755859375 0,63.805999755859375 0,63.805999755859375"></path></g></g><g transform="matrix(0.7999988198280334,-0.0013915913878008723,-0.001809068606235087,-1.0399984121322632,-147.94314575195312,1820.6295166015625)" opacity="0.39" style="display: block;"><g opacity="1" transform="matrix(0.8954710364341736,0.4451197385787964,-0.4451197385787964,0.8954710364341736,1831.14501953125,765.2899780273438)"><path fill="url(#__lottie_element_44)" fill-opacity="1" d=" M-167.2209930419922,65.85900115966797 C-162.9709930419922,87.06099700927734 -83.24400329589844,195.9600067138672 -79.72699737548828,216.46600341796875 C-70.86599731445312,227.83299255371094 77.9520034790039,498.7770080566406 92.36900329589844,505.4939880371094 C91.71700286865234,514.791015625 117.20899963378906,537.4039916992188 116.01300048828125,532.7969970703125 C70.87799835205078,496.4410095214844 -125.74600219726562,102.8949966430664 -153.468994140625,84.26000213623047 C-163.24899291992188,63.505001068115234 -170.0030059814453,48.231998443603516 -177.26300048828125,36.305999755859375 C-174.031005859375,43.45100021362305 -161.21400451660156,67.13500213623047 -167.2209930419922,65.85900115966797z"></path></g><g opacity="1" transform="matrix(0.8954710364341736,0.4451197385787964,-0.4451197385787964,0.8954710364341736,689.14501953125,743.2899780273438)"><path fill="url(#__lottie_element_45)" fill-opacity="1" d=" M-370.40899658203125,208.58999633789062 C-365.010009765625,224.13900756835938 -313.9679870605469,312.6499938964844 -308.9849853515625,327.5989990234375 C-303.44000244140625,336.9179992675781 -252.11000061035156,428.8280029296875 -245.13699340820312,435.7070007324219 C-243.78199768066406,442.1499938964844 -230.8260040283203,460.7229919433594 -232.10899353027344,457.3039855957031 C-256.6050109863281,424.989013671875 -347.2690124511719,240.83700561523438 -361.6719970703125,223.58799743652344 C-369.2200012207031,207.5279998779297 -374.5950012207031,195.7760009765625 -379.5929870605469,186.302001953125 C-377.04901123046875,191.80999755859375 -367.76800537109375,210.38499450683594 -370.40899658203125,208.58999633789062z"></path></g><g opacity="1" transform="matrix(0.8605998158454895,0.5092817544937134,-0.5092817544937134,0.8605998158454895,1511.14501953125,973.2899780273438)"><path fill="url(#__lottie_element_46)" fill-opacity="1" d=" M-380.5360107421875,214.95399475097656 C-373.75299072265625,229.9510040283203 -314.9159851074219,313.4830017089844 -308.60101318359375,327.9209899902344 C-302.2359924316406,336.70098876953125 -242.80499267578125,423.5920104980469 -235.23899841308594,429.81201171875 C-233.3070068359375,436.1059875488281 -218.72300720214844,453.4309997558594 -220.30999755859375,450.1419982910156 C-247.6280059814453,420.17401123046875 -354.5740051269531,244.9770050048828 -370.4779968261719,229.1009979248047 C-379.4469909667969,213.78900146484375 -385.864013671875,202.5709991455078 -391.697998046875,193.58799743652344 C-388.6659851074219,198.843994140625 -377.7439880371094,216.5019989013672 -380.5360107421875,214.95399475097656z"></path></g></g><g transform="matrix(0.9999985098838806,-0.001739489147439599,0.001739489147439599,0.9999985098838806,-363.64434814453125,-450.54736328125)" opacity="1" style="display: block;"><g opacity="1" transform="matrix(1,0,0,1,0,0)"><g opacity="1" transform="matrix(1,0,0,1,1020.7490234375,957.4010009765625)"><path fill="rgb(241,241,241)" fill-opacity="1" d=" M612.0150146484375,84.177001953125 C612.0150146484375,84.177001953125 -612.0150146484375,84.177001953125 -612.0150146484375,84.177001953125 C-612.0150146484375,84.177001953125 -612.0150146484375,-84.177001953125 -612.0150146484375,-84.177001953125 C-612.0150146484375,-84.177001953125 612.0150146484375,-84.177001953125 612.0150146484375,-84.177001953125 C612.0150146484375,-84.177001953125 612.0150146484375,84.177001953125 612.0150146484375,84.177001953125z"></path></g><g opacity="1" transform="matrix(1,0,0,1,1020.7490234375,957.4010009765625)"><path stroke-linecap="butt" stroke-linejoin="miter" fill-opacity="0" stroke-miterlimit="10" stroke="rgb(29,32,33)" stroke-opacity="1" stroke-width="7.261" d=" M612.0150146484375,84.177001953125 C612.0150146484375,84.177001953125 -612.0150146484375,84.177001953125 -612.0150146484375,84.177001953125 C-612.0150146484375,84.177001953125 -612.0150146484375,-84.177001953125 -612.0150146484375,-84.177001953125 C-612.0150146484375,-84.177001953125 612.0150146484375,-84.177001953125 612.0150146484375,-84.177001953125 C612.0150146484375,-84.177001953125 612.0150146484375,84.177001953125 612.0150146484375,84.177001953125z"></path></g></g><g opacity="1" transform="matrix(1,0,0,1,0,0)"><g opacity="1" transform="matrix(1,0,0,1,1574.4229736328125,957.4000244140625)"><path fill="rgb(29,32,33)" fill-opacity="1" d=" M44.6879997253418,-84.177001953125 C44.6879997253418,-84.177001953125 36.356998443603516,-84.177001953125 36.356998443603516,-84.177001953125 C36.356998443603516,-84.177001953125 -58.34199905395508,84.177001953125 -58.34199905395508,84.177001953125 C-58.34199905395508,84.177001953125 -50.01100158691406,84.177001953125 -50.01100158691406,84.177001953125 C-50.01100158691406,84.177001953125 54.40299987792969,84.177001953125 54.40299987792969,84.177001953125 C54.40299987792969,84.177001953125 58.34199905395508,84.177001953125 58.34199905395508,84.177001953125 C58.34199905395508,84.177001953125 58.34199905395508,77.17400360107422 58.34199905395508,77.17400360107422 C58.34199905395508,77.17400360107422 58.34199905395508,-84.177001953125 58.34199905395508,-84.177001953125 C58.34199905395508,-84.177001953125 44.6879997253418,-84.177001953125 44.6879997253418,-84.177001953125z"></path></g><g opacity="1" transform="matrix(1,0,0,1,1408.958984375,957.4000244140625)"><path fill="rgb(29,32,33)" fill-opacity="1" d=" M13.675000190734863,-84.177001953125 C13.675000190734863,-84.177001953125 5.343999862670898,-84.177001953125 5.343999862670898,-84.177001953125 C5.343999862670898,-84.177001953125 -89.35600280761719,84.177001953125 -89.35600280761719,84.177001953125 C-89.35600280761719,84.177001953125 -81.0250015258789,84.177001953125 -81.0250015258789,84.177001953125 C-81.0250015258789,84.177001953125 -13.673999786376953,84.177001953125 -13.673999786376953,84.177001953125 C-13.673999786376953,84.177001953125 -5.343999862670898,84.177001953125 -5.343999862670898,84.177001953125 C-5.343999862670898,84.177001953125 89.35600280761719,-84.177001953125 89.35600280761719,-84.177001953125 C89.35600280761719,-84.177001953125 81.0250015258789,-84.177001953125 81.0250015258789,-84.177001953125 C81.0250015258789,-84.177001953125 13.675000190734863,-84.177001953125 13.675000190734863,-84.177001953125z"></path></g><g opacity="1" transform="matrix(1,0,0,1,1212.4820556640625,957.4000244140625)"><path fill="rgb(29,32,33)" fill-opacity="1" d=" M13.675000190734863,-84.177001953125 C13.675000190734863,-84.177001953125 5.343999862670898,-84.177001953125 5.343999862670898,-84.177001953125 C5.343999862670898,-84.177001953125 -89.3550033569336,84.177001953125 -89.3550033569336,84.177001953125 C-89.3550033569336,84.177001953125 -81.0250015258789,84.177001953125 -81.0250015258789,84.177001953125 C-81.0250015258789,84.177001953125 -13.673999786376953,84.177001953125 -13.673999786376953,84.177001953125 C-13.673999786376953,84.177001953125 -5.343999862670898,84.177001953125 -5.343999862670898,84.177001953125 C-5.343999862670898,84.177001953125 89.3550033569336,-84.177001953125 89.3550033569336,-84.177001953125 C89.3550033569336,-84.177001953125 81.0250015258789,-84.177001953125 81.0250015258789,-84.177001953125 C81.0250015258789,-84.177001953125 13.675000190734863,-84.177001953125 13.675000190734863,-84.177001953125z"></path></g><g opacity="1" transform="matrix(1,0,0,1,1016.0059814453125,957.4000244140625)"><path fill="rgb(29,32,33)" fill-opacity="1" d=" M13.675000190734863,-84.177001953125 C13.675000190734863,-84.177001953125 5.343999862670898,-84.177001953125 5.343999862670898,-84.177001953125 C5.343999862670898,-84.177001953125 -89.3550033569336,84.177001953125 -89.3550033569336,84.177001953125 C-89.3550033569336,84.177001953125 -81.0250015258789,84.177001953125 -81.0250015258789,84.177001953125 C-81.0250015258789,84.177001953125 -13.673999786376953,84.177001953125 -13.673999786376953,84.177001953125 C-13.673999786376953,84.177001953125 -5.343999862670898,84.177001953125 -5.343999862670898,84.177001953125 C-5.343999862670898,84.177001953125 89.3550033569336,-84.177001953125 89.3550033569336,-84.177001953125 C89.3550033569336,-84.177001953125 81.0250015258789,-84.177001953125 81.0250015258789,-84.177001953125 C81.0250015258789,-84.177001953125 13.675000190734863,-84.177001953125 13.675000190734863,-84.177001953125z"></path></g><g opacity="1" transform="matrix(1,0,0,1,819.5289916992188,957.4000244140625)"><path fill="rgb(29,32,33)" fill-opacity="1" d=" M13.673999786376953,-84.177001953125 C13.673999786376953,-84.177001953125 5.343999862670898,-84.177001953125 5.343999862670898,-84.177001953125 C5.343999862670898,-84.177001953125 -89.3550033569336,84.177001953125 -89.3550033569336,84.177001953125 C-89.3550033569336,84.177001953125 -81.0250015258789,84.177001953125 -81.0250015258789,84.177001953125 C-81.0250015258789,84.177001953125 -13.673999786376953,84.177001953125 -13.673999786376953,84.177001953125 C-13.673999786376953,84.177001953125 -5.343999862670898,84.177001953125 -5.343999862670898,84.177001953125 C-5.343999862670898,84.177001953125 89.3550033569336,-84.177001953125 89.3550033569336,-84.177001953125 C89.3550033569336,-84.177001953125 81.0250015258789,-84.177001953125 81.0250015258789,-84.177001953125 C81.0250015258789,-84.177001953125 13.673999786376953,-84.177001953125 13.673999786376953,-84.177001953125z"></path></g><g opacity="1" transform="matrix(1,0,0,1,623.052978515625,957.4000244140625)"><path fill="rgb(29,32,33)" fill-opacity="1" d=" M13.673999786376953,-84.177001953125 C13.673999786376953,-84.177001953125 5.343999862670898,-84.177001953125 5.343999862670898,-84.177001953125 C5.343999862670898,-84.177001953125 -89.3550033569336,84.177001953125 -89.3550033569336,84.177001953125 C-89.3550033569336,84.177001953125 -81.0250015258789,84.177001953125 -81.0250015258789,84.177001953125 C-81.0250015258789,84.177001953125 -13.673999786376953,84.177001953125 -13.673999786376953,84.177001953125 C-13.673999786376953,84.177001953125 -5.343999862670898,84.177001953125 -5.343999862670898,84.177001953125 C-5.343999862670898,84.177001953125 89.3550033569336,-84.177001953125 89.3550033569336,-84.177001953125 C89.3550033569336,-84.177001953125 81.0250015258789,-84.177001953125 81.0250015258789,-84.177001953125 C81.0250015258789,-84.177001953125 13.673999786376953,-84.177001953125 13.673999786376953,-84.177001953125z"></path></g><g opacity="1" transform="matrix(1,0,0,1,462.3609924316406,957.4000244140625)"><path fill="rgb(29,32,33)" fill-opacity="1" d=" M-52.17599868774414,-84.177001953125 C-52.17599868774414,-84.177001953125 -53.62799835205078,-84.177001953125 -53.62799835205078,-84.177001953125 C-53.62799835205078,-84.177001953125 -53.62799835205078,-81.59600067138672 -53.62799835205078,-81.59600067138672 C-53.62799835205078,-81.59600067138672 -53.62799835205078,84.177001953125 -53.62799835205078,84.177001953125 C-53.62799835205078,84.177001953125 -49.4010009765625,84.177001953125 -49.4010009765625,84.177001953125 C-49.4010009765625,84.177001953125 -41.07099914550781,84.177001953125 -41.07099914550781,84.177001953125 C-41.07099914550781,84.177001953125 53.62799835205078,-84.177001953125 53.62799835205078,-84.177001953125 C53.62799835205078,-84.177001953125 45.29800033569336,-84.177001953125 45.29800033569336,-84.177001953125 C45.29800033569336,-84.177001953125 -52.17599868774414,-84.177001953125 -52.17599868774414,-84.177001953125z"></path></g></g></g><g transform="matrix(0.6800000071525574,0,0,-1.3200000524520874,-5.223637104034424,2089.634765625)" opacity="0.19" style="display: block;"><g opacity="1" transform="matrix(1,0,0,1,1030.39794921875,852.7150268554688)"><path fill="url(#__lottie_element_24)" fill-opacity="1" d=" M-5.045000076293945,-0.6930000185966492 C-3.250999927520752,-0.25600001215934753 -4.247000217437744,-3.8499999046325684 5.045000076293945,8.96500015258789 C1.2130000591278076,0.5360000133514404 -1.194000005722046,-20.566999435424805 -5.045000076293945,-0.6930000185966492z"></path></g><g opacity="1" transform="matrix(1,0,0,1,1812.5830078125,863.3209838867188)"><path fill="url(#__lottie_element_25)" fill-opacity="1" d=" M-5.934999942779541,-7.89300012588501 C-5.4120001792907715,-2.0199999809265137 -4.771999835968018,3.3450000286102295 -3.1110000610351562,7.89300012588501 C10.696999549865723,3.506999969482422 7.85699987411499,-7.0289998054504395 -5.934999942779541,-7.89300012588501z"></path></g><g opacity="1" transform="matrix(1,0,0,1,1816.3299560546875,1039.7359619140625)"><path fill="url(#__lottie_element_26)" fill-opacity="1" d=" M-2.9040000438690186,-8.039999961853027 C-2.5290000438690186,-2.6459999084472656 -2.055999994277954,2.7880001068115234 -1.965000033378601,8.039999961853027 C1.7589999437332153,0.37400001287460327 7.25600004196167,-4.324999809265137 -2.9040000438690186,-8.039999961853027z"></path></g><g opacity="1" transform="matrix(1,0,0,1,1516.1710205078125,1220.6099853515625)"><path fill="url(#__lottie_element_27)" fill-opacity="1" d=" M-8.545000076293945,-4.685999870300293 C-5.376999855041504,5.705999851226807 3.864000082015991,-6.067999839782715 -0.8149999976158142,9.404000282287598 C-0.4830000102519989,14.067000389099121 2.49399995803833,20.82699966430664 7.27400016784668,16.64299964904785 C4.611999988555908,6.27400016784668 10.168000221252441,-2.171999931335449 8.053999900817871,-11.609000205993652 C-0.2240000069141388,-4.151000022888184 1.6030000448226929,-34.207000732421875 -8.545000076293945,-4.685999870300293z"></path></g><g opacity="1" transform="matrix(1,0,0,1,1856.3680419921875,769.4990234375)"><path fill="url(#__lottie_element_28)" fill-opacity="1" d=" M-1.2380000352859497,5.456999778747559 C-2.190000057220459,0.765999972820282 0.8889999985694885,-4.321000099182129 0.37400001287460327,3.055000066757202 C7.626999855041504,-1.2020000219345093 -6.61299991607666,-15.01099967956543 -1.2380000352859497,5.456999778747559z"></path></g><g opacity="1" transform="matrix(1,0,0,1,1798.7669677734375,1219.865966796875)"><path fill="url(#__lottie_element_29)" fill-opacity="1" d=" M-5.415999889373779,-43.24599838256836 C-12.156999588012695,-22.700000762939453 1.4839999675750732,-2.6410000324249268 -5.552000045776367,16.937999725341797 C-3.437000036239624,31.19499969482422 3.128999948501587,72.95800018310547 6.446000099182129,40.141998291015625 C1.2999999523162842,47.91299819946289 6.119999885559082,28.731000900268555 7.3470001220703125,24.131999969482422 C-8.920000076293945,1.3489999771118164 10.347000122070312,11.829000473022461 -1.9789999723434448,-18.465999603271484 C7.28000020980835,-20.952999114990234 1.6480000019073486,-38.46699905395508 1.2020000219345093,-52.422000885009766 C0.4959999918937683,-44.61199951171875 -0.8149999976158142,-39.178001403808594 -5.415999889373779,-43.24599838256836z"></path></g><g opacity="1" transform="matrix(1,0,0,1,1714.6929931640625,728.1539916992188)"><path fill="url(#__lottie_element_30)" fill-opacity="1" d=" M-0.0820000022649765,8.199000358581543 C5.166999816894531,9.871000289916992 2.6389999389648438,-1.3109999895095825 0.19900000095367432,-6.4629998207092285 C-3.322000026702881,0.47699999809265137 0.5199999809265137,-10.307000160217285 -2.9749999046325684,-8.050999641418457 C-3.377000093460083,-1.996000051498413 1.0479999780654907,0.8330000042915344 -0.0820000022649765,8.199000358581543z"></path></g><g opacity="1" transform="matrix(1,0,0,1,237.9949951171875,1232.7469482421875)"><path fill="url(#__lottie_element_31)" fill-opacity="1" d=" M47.678001403808594,10.46500015258789 C49.88800048828125,5.728000164031982 43.869998931884766,9.16100025177002 41.922000885009766,8.748000144958496 C44.67599868774414,-4.163000106811523 34.99100112915039,15.333999633789062 27.341999053955078,11.789999961853027 C30.486000061035156,-0.3569999933242798 17.216999053955078,8.803999900817871 11.350000381469727,1.7940000295639038 C10.447999954223633,4.454999923706055 15.616000175476074,4.895999908447266 13.590999603271484,8.979999542236328 C5.374000072479248,-0.6520000100135803 -22.433000564575195,4.410999774932861 -36.21500015258789,-4.302000045776367 C-23.576000213623047,-16.724000930786133 -36.43199920654297,-4.419000148773193 -48.16400146484375,-13.255000114440918 C-30.35300064086914,18.929000854492188 55.362998962402344,14.482999801635742 47.678001403808594,10.46500015258789z"></path></g><g opacity="1" transform="matrix(1,0,0,1,963.322021484375,1100.3489990234375)"><path fill="url(#__lottie_element_32)" fill-opacity="1" d=" M-439.4469909667969,-29.121999740600586 C-440.1809997558594,-27.875 -466.2120056152344,-19.96500015258789 -468.4620056152344,-19.340999603271484 C-473.8039855957031,-15.154999732971191 -453.62200927734375,-21.216999053955078 -463.67401123046875,-18.045000076293945 C-468.135009765625,-14.239999771118164 -475.90301513671875,-14.486000061035156 -486.322998046875,-10.440999984741211 C-485.5639953613281,-11.222999572753906 -480.0069885253906,-12.633999824523926 -479.4949951171875,-13.680000305175781 C-493.97198486328125,-8.085000038146973 -474.1759948730469,-17.256999969482422 -493.7560119628906,-10.666999816894531 C-488.6929931640625,-9.045000076293945 -494.04998779296875,-10.571000099182129 -511.614990234375,-4.427999973297119 C-473.0929870605469,-20.80299949645996 -429.0589904785156,-32.48099899291992 -439.4469909667969,-29.121999740600586z"></path></g><g opacity="1" transform="matrix(1,0,0,1,1339.7159423828125,781.989990234375)"><path fill="url(#__lottie_element_33)" fill-opacity="1" d=" M13.177000045776367,-3.828000068664551 C12.062999725341797,-16.97100067138672 -7.000999927520752,-8.246000289916992 -13.177000045776367,-1.0049999952316284 C-10.517999649047852,2.936000108718872 -4.635000228881836,11.684000015258789 1.9079999923706055,10.512999534606934 C1.2330000400543213,7.6620001792907715 -5.243000030517578,3.502000093460083 -3.2019999027252197,-0.7549999952316284 C1.659999966621399,1.0219999551773071 1.0820000171661377,5.580999851226807 7.433000087738037,7.7170000076293945 C13.597000122070312,1.2419999837875366 -5.7779998779296875,-5.348999977111816 13.177000045776367,-3.828000068664551z"></path></g><g opacity="1" transform="matrix(1,0,0,1,1045.510986328125,1227.31298828125)"><path fill="url(#__lottie_element_34)" fill-opacity="1" d=" M-3.809000015258789,-7.021999835968018 C-10.864999771118164,-4.0960001945495605 -2.697999954223633,4.888000011444092 2.382999897003174,7.021999835968018 C4.090000152587891,4.861999988555908 7.881999969482422,0.07699999958276749 6.085000038146973,-3.3269999027252197 C4.63100004196167,-2.453000068664551 3.4739999771118164,1.8509999513626099 0.7670000195503235,1.4739999771118164 C0.8920000195503235,-1.5210000276565552 3.509000062942505,-2.003000020980835 3.571000099182129,-5.882999897003174 C-1.0850000381469727,-8.145000457763672 -1.315000057220459,3.7039999961853027 -3.809000015258789,-7.021999835968018z"></path></g><g opacity="1" transform="matrix(1,0,0,1,213.81300354003906,759.0499877929688)"><path fill="url(#__lottie_element_35)" fill-opacity="1" d=" M-9.576000213623047,-13.75100040435791 C-22.031999588012695,1.399999976158142 9.62399959564209,-10.972999572753906 5.5929999351501465,2.065000057220459 C8.470000267028809,8.605999946594238 -2.930999994277954,8.20199966430664 4.560999870300293,13.75100040435791 C25.88800048828125,2.7360000610351562 -1.6419999599456787,-8.666000366210938 -9.576000213623047,-13.75100040435791z"></path></g><g opacity="1" transform="matrix(1,0,0,1,220.80299377441406,1221.97900390625)"><path fill="url(#__lottie_element_36)" fill-opacity="1" d=" M5.193999767303467,-6.140999794006348 C2.2070000171661377,-7.640999794006348 -3.453000068664551,-5.099999904632568 -6.986999988555908,-2.2639999389648438 C0.7390000224113464,-1.909000039100647 -7.473999977111816,5.958000183105469 -1.4179999828338623,6.585999965667725 C-2.3949999809265137,-2.747999906539917 11.890000343322754,1.8489999771118164 5.193999767303467,-6.140999794006348z"></path></g><g opacity="1" transform="matrix(1,0,0,1,135.0279998779297,971.4039916992188)"><path fill="url(#__lottie_element_37)" fill-opacity="1" d=" M2.203000068664551,-12.732999801635742 C-3.4260001182556152,-11.22599983215332 -7.855000019073486,-1.3569999933242798 -9.17300033569336,6.432000160217285 C1.3029999732971191,-2.056999921798706 -0.2809999883174896,17.70599937438965 8.336000442504883,11.508000373840332 C-3.750999927520752,0.4819999933242798 20.183000564575195,-10.083000183105469 2.203000068664551,-12.732999801635742z"></path></g><g opacity="1" transform="matrix(1,0,0,1,593.9290161132812,975.7039794921875)"><path fill="url(#__lottie_element_38)" fill-opacity="1" d=" M-10.517999649047852,-16.610000610351562 C13.673999786376953,11.210000038146973 -17.29199981689453,-19.91699981689453 -1.7640000581741333,4.658999919891357 C-9.949000358581543,6.99399995803833 -3.5299999713897705,-4.294000148773193 -10.63700008392334,-0.5270000100135803 C-11.305999755859375,9.263999938964844 4.025000095367432,7.730000019073486 -6.8470001220703125,16.610000610351562 C13.269000053405762,12.312000274658203 -5.631999969482422,12.173999786376953 0.9679999947547913,7.940000057220459 C4.7829999923706055,6.85099983215332 5.933000087738037,9.17300033569336 6.9629998207092285,10.748000144958496 C13.059000015258789,-11.618000030517578 14.25,-10.654000282287598 -10.517999649047852,-16.610000610351562z"></path></g></g><g transform="matrix(0.9865418076515198,-0.16350960731506348,0.16350960731506348,0.9865418076515198,-499.40447998046875,-372.67486572265625)" opacity="1" style="display: block;"><g opacity="1" transform="matrix(1,0,0,1,0,0)"><g opacity="1" transform="matrix(1,0,0,1,1020.7490234375,789.0460205078125)"><path fill="rgb(241,241,241)" fill-opacity="1" d=" M612.0150146484375,-84.177001953125 C612.0150146484375,-84.177001953125 -612.0150146484375,-84.177001953125 -612.0150146484375,-84.177001953125 C-612.0150146484375,-84.177001953125 -612.0150146484375,84.177001953125 -612.0150146484375,84.177001953125 C-612.0150146484375,84.177001953125 612.0150146484375,84.177001953125 612.0150146484375,84.177001953125 C612.0150146484375,84.177001953125 612.0150146484375,-84.177001953125 612.0150146484375,-84.177001953125z"></path></g><g opacity="1" transform="matrix(1,0,0,1,1020.7490234375,789.0460205078125)"><path stroke-linecap="butt" stroke-linejoin="miter" fill-opacity="0" stroke-miterlimit="10" stroke="rgb(29,32,33)" stroke-opacity="1" stroke-width="7.261" d=" M612.0150146484375,-84.177001953125 C612.0150146484375,-84.177001953125 -612.0150146484375,-84.177001953125 -612.0150146484375,-84.177001953125 C-612.0150146484375,-84.177001953125 -612.0150146484375,84.177001953125 -612.0150146484375,84.177001953125 C-612.0150146484375,84.177001953125 612.0150146484375,84.177001953125 612.0150146484375,84.177001953125 C612.0150146484375,84.177001953125 612.0150146484375,-84.177001953125 612.0150146484375,-84.177001953125z"></path></g></g><g opacity="1" transform="matrix(1,0,0,1,0,0)"><g opacity="1" transform="matrix(1,0,0,1,1574.4229736328125,789.0460205078125)"><path fill="rgb(29,32,33)" fill-opacity="1" d=" M44.6879997253418,84.177001953125 C44.6879997253418,84.177001953125 36.356998443603516,84.177001953125 36.356998443603516,84.177001953125 C36.356998443603516,84.177001953125 -58.34199905395508,-84.177001953125 -58.34199905395508,-84.177001953125 C-58.34199905395508,-84.177001953125 -50.01100158691406,-84.177001953125 -50.01100158691406,-84.177001953125 C-50.01100158691406,-84.177001953125 54.40299987792969,-84.177001953125 54.40299987792969,-84.177001953125 C54.40299987792969,-84.177001953125 58.34199905395508,-84.177001953125 58.34199905395508,-84.177001953125 C58.34199905395508,-84.177001953125 58.34199905395508,-77.17400360107422 58.34199905395508,-77.17400360107422 C58.34199905395508,-77.17400360107422 58.34199905395508,84.177001953125 58.34199905395508,84.177001953125 C58.34199905395508,84.177001953125 44.6879997253418,84.177001953125 44.6879997253418,84.177001953125z"></path></g><g opacity="1" transform="matrix(1,0,0,1,1408.958984375,789.0460205078125)"><path fill="rgb(29,32,33)" fill-opacity="1" d=" M13.675000190734863,84.177001953125 C13.675000190734863,84.177001953125 5.343999862670898,84.177001953125 5.343999862670898,84.177001953125 C5.343999862670898,84.177001953125 -89.35600280761719,-84.177001953125 -89.35600280761719,-84.177001953125 C-89.35600280761719,-84.177001953125 -81.0250015258789,-84.177001953125 -81.0250015258789,-84.177001953125 C-81.0250015258789,-84.177001953125 -13.673999786376953,-84.177001953125 -13.673999786376953,-84.177001953125 C-13.673999786376953,-84.177001953125 -5.343999862670898,-84.177001953125 -5.343999862670898,-84.177001953125 C-5.343999862670898,-84.177001953125 89.35600280761719,84.177001953125 89.35600280761719,84.177001953125 C89.35600280761719,84.177001953125 81.0250015258789,84.177001953125 81.0250015258789,84.177001953125 C81.0250015258789,84.177001953125 13.675000190734863,84.177001953125 13.675000190734863,84.177001953125z"></path></g><g opacity="1" transform="matrix(1,0,0,1,1212.4820556640625,789.0460205078125)"><path fill="rgb(29,32,33)" fill-opacity="1" d=" M13.675000190734863,84.177001953125 C13.675000190734863,84.177001953125 5.343999862670898,84.177001953125 5.343999862670898,84.177001953125 C5.343999862670898,84.177001953125 -89.3550033569336,-84.177001953125 -89.3550033569336,-84.177001953125 C-89.3550033569336,-84.177001953125 -81.0250015258789,-84.177001953125 -81.0250015258789,-84.177001953125 C-81.0250015258789,-84.177001953125 -13.673999786376953,-84.177001953125 -13.673999786376953,-84.177001953125 C-13.673999786376953,-84.177001953125 -5.343999862670898,-84.177001953125 -5.343999862670898,-84.177001953125 C-5.343999862670898,-84.177001953125 89.3550033569336,84.177001953125 89.3550033569336,84.177001953125 C89.3550033569336,84.177001953125 81.0250015258789,84.177001953125 81.0250015258789,84.177001953125 C81.0250015258789,84.177001953125 13.675000190734863,84.177001953125 13.675000190734863,84.177001953125z"></path></g><g opacity="1" transform="matrix(1,0,0,1,1016.0059814453125,789.0460205078125)"><path fill="rgb(29,32,33)" fill-opacity="1" d=" M13.675000190734863,84.177001953125 C13.675000190734863,84.177001953125 5.343999862670898,84.177001953125 5.343999862670898,84.177001953125 C5.343999862670898,84.177001953125 -89.3550033569336,-84.177001953125 -89.3550033569336,-84.177001953125 C-89.3550033569336,-84.177001953125 -81.0250015258789,-84.177001953125 -81.0250015258789,-84.177001953125 C-81.0250015258789,-84.177001953125 -13.673999786376953,-84.177001953125 -13.673999786376953,-84.177001953125 C-13.673999786376953,-84.177001953125 -5.343999862670898,-84.177001953125 -5.343999862670898,-84.177001953125 C-5.343999862670898,-84.177001953125 89.3550033569336,84.177001953125 89.3550033569336,84.177001953125 C89.3550033569336,84.177001953125 81.0250015258789,84.177001953125 81.0250015258789,84.177001953125 C81.0250015258789,84.177001953125 13.675000190734863,84.177001953125 13.675000190734863,84.177001953125z"></path></g><g opacity="1" transform="matrix(1,0,0,1,819.5289916992188,789.0460205078125)"><path fill="rgb(29,32,33)" fill-opacity="1" d=" M13.673999786376953,84.177001953125 C13.673999786376953,84.177001953125 5.343999862670898,84.177001953125 5.343999862670898,84.177001953125 C5.343999862670898,84.177001953125 -89.3550033569336,-84.177001953125 -89.3550033569336,-84.177001953125 C-89.3550033569336,-84.177001953125 -81.0250015258789,-84.177001953125 -81.0250015258789,-84.177001953125 C-81.0250015258789,-84.177001953125 -13.673999786376953,-84.177001953125 -13.673999786376953,-84.177001953125 C-13.673999786376953,-84.177001953125 -5.343999862670898,-84.177001953125 -5.343999862670898,-84.177001953125 C-5.343999862670898,-84.177001953125 89.3550033569336,84.177001953125 89.3550033569336,84.177001953125 C89.3550033569336,84.177001953125 81.0250015258789,84.177001953125 81.0250015258789,84.177001953125 C81.0250015258789,84.177001953125 13.673999786376953,84.177001953125 13.673999786376953,84.177001953125z"></path></g><g opacity="1" transform="matrix(1,0,0,1,623.052978515625,789.0460205078125)"><path fill="rgb(29,32,33)" fill-opacity="1" d=" M13.673999786376953,84.177001953125 C13.673999786376953,84.177001953125 5.343999862670898,84.177001953125 5.343999862670898,84.177001953125 C5.343999862670898,84.177001953125 -89.3550033569336,-84.177001953125 -89.3550033569336,-84.177001953125 C-89.3550033569336,-84.177001953125 -81.0250015258789,-84.177001953125 -81.0250015258789,-84.177001953125 C-81.0250015258789,-84.177001953125 -13.673999786376953,-84.177001953125 -13.673999786376953,-84.177001953125 C-13.673999786376953,-84.177001953125 -5.343999862670898,-84.177001953125 -5.343999862670898,-84.177001953125 C-5.343999862670898,-84.177001953125 89.3550033569336,84.177001953125 89.3550033569336,84.177001953125 C89.3550033569336,84.177001953125 81.0250015258789,84.177001953125 81.0250015258789,84.177001953125 C81.0250015258789,84.177001953125 13.673999786376953,84.177001953125 13.673999786376953,84.177001953125z"></path></g><g opacity="1" transform="matrix(1,0,0,1,462.3609924316406,789.0460205078125)"><path fill="rgb(29,32,33)" fill-opacity="1" d=" M-52.17599868774414,84.177001953125 C-52.17599868774414,84.177001953125 -53.62799835205078,84.177001953125 -53.62799835205078,84.177001953125 C-53.62799835205078,84.177001953125 -53.62799835205078,81.59600067138672 -53.62799835205078,81.59600067138672 C-53.62799835205078,81.59600067138672 -53.62799835205078,-84.177001953125 -53.62799835205078,-84.177001953125 C-53.62799835205078,-84.177001953125 -49.4010009765625,-84.177001953125 -49.4010009765625,-84.177001953125 C-49.4010009765625,-84.177001953125 -41.07099914550781,-84.177001953125 -41.07099914550781,-84.177001953125 C-41.07099914550781,-84.177001953125 53.62799835205078,84.177001953125 53.62799835205078,84.177001953125 C53.62799835205078,84.177001953125 45.29800033569336,84.177001953125 45.29800033569336,84.177001953125 C45.29800033569336,84.177001953125 -52.17599868774414,84.177001953125 -52.17599868774414,84.177001953125z"></path></g></g></g><g transform="matrix(-0.4818204641342163,0.07268498837947845,-0.14679570496082306,-0.9730919003486633,1269.1025390625,1131.92431640625)" opacity="0.25" style="display: block;"><g opacity="1" transform="matrix(1,0,0,1,1030.988037109375,955.0549926757812)"><path fill="url(#__lottie_element_9)" fill-opacity="1" d=" M-5.045000076293945,-0.6930000185966492 C-3.250999927520752,-0.25600001215934753 -4.247000217437744,-3.8499999046325684 5.045000076293945,8.96500015258789 C1.2130000591278076,0.5360000133514404 -1.194000005722046,-20.566999435424805 -5.045000076293945,-0.6930000185966492z"></path></g><g opacity="1" transform="matrix(1,0,0,1,1736.491943359375,980.1129760742188)"><path fill="url(#__lottie_element_10)" fill-opacity="1" d=" M-5.934999942779541,-7.89300012588501 C-5.4120001792907715,-2.0199999809265137 -4.771999835968018,3.3450000286102295 -3.1110000610351562,7.89300012588501 C10.696999549865723,3.506999969482422 7.85699987411499,-7.0289998054504395 -5.934999942779541,-7.89300012588501z"></path></g><g opacity="1" transform="matrix(1,0,0,1,1816.3299560546875,1039.7359619140625)"><path fill="url(#__lottie_element_11)" fill-opacity="1" d=" M-2.9040000438690186,-8.039999961853027 C-2.5290000438690186,-2.6459999084472656 -2.055999994277954,2.7880001068115234 -1.965000033378601,8.039999961853027 C1.7589999437332153,0.37400001287460327 7.25600004196167,-4.324999809265137 -2.9040000438690186,-8.039999961853027z"></path></g><g opacity="1" transform="matrix(1,0,0,1,1319.302978515625,1028.1510009765625)"><path fill="url(#__lottie_element_12)" fill-opacity="1" d=" M-1.2380000352859497,5.456999778747559 C-2.190000057220459,0.765999972820282 0.8889999985694885,-4.321000099182129 0.37400001287460327,3.055000066757202 C7.626999855041504,-1.2020000219345093 -6.61299991607666,-15.01099967956543 -1.2380000352859497,5.456999778747559z"></path></g><g opacity="1" transform="matrix(1,0,0,1,1798.7669677734375,1219.865966796875)"><path fill="url(#__lottie_element_13)" fill-opacity="1" d="M0 0"></path></g><g opacity="1" transform="matrix(1,0,0,1,1880.4429931640625,951.7100219726562)"><path fill="url(#__lottie_element_14)" fill-opacity="1" d=" M-0.0820000022649765,8.199000358581543 C5.166999816894531,9.871000289916992 2.6389999389648438,-1.3109999895095825 0.19900000095367432,-6.4629998207092285 C-3.322000026702881,0.47699999809265137 0.5199999809265137,-10.307000160217285 -2.9749999046325684,-8.050999641418457 C-3.377000093460083,-1.996000051498413 1.0479999780654907,0.8330000042915344 -0.0820000022649765,8.199000358581543z"></path></g><g opacity="1" transform="matrix(1,0,0,1,308.7770080566406,1010.3699951171875)"><path fill="url(#__lottie_element_15)" fill-opacity="1" d=" M47.678001403808594,10.46500015258789 C49.88800048828125,5.728000164031982 43.869998931884766,9.16100025177002 41.922000885009766,8.748000144958496 C44.67599868774414,-4.163000106811523 34.99100112915039,15.333999633789062 27.341999053955078,11.789999961853027 C30.486000061035156,-0.3569999933242798 17.216999053955078,8.803999900817871 11.350000381469727,1.7940000295639038 C10.447999954223633,4.454999923706055 15.616000175476074,4.895999908447266 13.590999603271484,8.979999542236328 C5.374000072479248,-0.6520000100135803 -22.433000564575195,4.410999774932861 -36.21500015258789,-4.302000045776367 C-23.576000213623047,-16.724000930786133 -36.43199920654297,-4.419000148773193 -48.16400146484375,-13.255000114440918 C-30.35300064086914,18.929000854492188 55.362998962402344,14.482999801635742 47.678001403808594,10.46500015258789z"></path></g><g opacity="1" transform="matrix(1,0,0,1,1396.9320068359375,970.7449951171875)"><path fill="url(#__lottie_element_16)" fill-opacity="1" d=" M13.177000045776367,-3.828000068664551 C12.062999725341797,-16.97100067138672 -7.000999927520752,-8.246000289916992 -13.177000045776367,-1.0049999952316284 C-10.517999649047852,2.936000108718872 -4.635000228881836,11.684000015258789 1.9079999923706055,10.512999534606934 C1.2330000400543213,7.6620001792907715 -5.243000030517578,3.502000093460083 -3.2019999027252197,-0.7549999952316284 C1.659999966621399,1.0219999551773071 1.0820000171661377,5.580999851226807 7.433000087738037,7.7170000076293945 C13.597000122070312,1.2419999837875366 -5.7779998779296875,-5.348999977111816 13.177000045776367,-3.828000068664551z"></path></g><g opacity="1" transform="matrix(1,0,0,1,751.7630004882812,1024.4859619140625)"><path fill="url(#__lottie_element_17)" fill-opacity="1" d=" M-9.576000213623047,-13.75100040435791 C-22.031999588012695,1.399999976158142 9.62399959564209,-10.972999572753906 5.5929999351501465,2.065000057220459 C8.470000267028809,8.605999946594238 -2.930999994277954,8.20199966430664 4.560999870300293,13.75100040435791 C25.88800048828125,2.7360000610351562 -1.6419999599456787,-8.666000366210938 -9.576000213623047,-13.75100040435791z"></path></g><g opacity="1" transform="matrix(1,0,0,1,159.45799255371094,1037.9439697265625)"><path fill="url(#__lottie_element_18)" fill-opacity="1" d=" M5.193999767303467,-6.140999794006348 C2.2070000171661377,-7.640999794006348 -3.453000068664551,-5.099999904632568 -6.986999988555908,-2.2639999389648438 C0.7390000224113464,-1.909000039100647 -7.473999977111816,5.958000183105469 -1.4179999828338623,6.585999965667725 C-2.3949999809265137,-2.747999906539917 11.890000343322754,1.8489999771118164 5.193999767303467,-6.140999794006348z"></path></g><g opacity="1" transform="matrix(1,0,0,1,135.0279998779297,971.4039916992188)"><path fill="url(#__lottie_element_19)" fill-opacity="1" d=" M2.203000068664551,-12.732999801635742 C-3.4260001182556152,-11.22599983215332 -7.855000019073486,-1.3569999933242798 -9.17300033569336,6.432000160217285 C1.3029999732971191,-2.056999921798706 -0.2809999883174896,17.70599937438965 8.336000442504883,11.508000373840332 C-3.750999927520752,0.4819999933242798 20.183000564575195,-10.083000183105469 2.203000068664551,-12.732999801635742z"></path></g><g opacity="1" transform="matrix(1,0,0,1,593.9290161132812,975.7039794921875)"><path fill="url(#__lottie_element_20)" fill-opacity="1" d=" M-135.89100646972656,-11.628000259399414 C-144.76699829101562,-32.165000915527344 -132.96400451660156,-6.14900016784668 -138,-19.73900032043457 C-133.83999633789062,-13.503000259399414 -138.03399658203125,-17.819000244140625 -134.25,-12.51099967956543 C-132.96499633789062,-12.583999633789062 -140.4770050048828,-24.43600082397461 -134.3820037841797,-16.503999710083008 C-144.46400451660156,-31.916000366210938 -135.4029998779297,-17.18199920654297 -138.98899841308594,-22.066999435424805 C-140.92799377441406,-24.972999572753906 -141.2519989013672,-26.010000228881836 -141.59100341796875,-26.908000946044922 C-146.7209930419922,-30.299999237060547 -147.19700622558594,-31.28700065612793 -135.89100646972656,-11.628000259399414z"></path></g></g></g></svg>