<svg width="30" height="30" viewBox="0 0 30 30" fill="none" xmlns="http://www.w3.org/2000/svg">
<path fill-rule="evenodd" clip-rule="evenodd" d="M13 24C6.92487 24 2 19.0751 2 13C2 6.92487 6.92487 2 13 2C19.0751 2 24 6.92487 24 13C24 19.0751 19.0751 24 13 24ZM0 13C0 5.8203 5.8203 1.90735e-06 13 1.90735e-06C20.1797 1.90735e-06 26 5.8203 26 13C26 16.2299 24.8221 19.1847 22.8724 21.4582L29.7071 28.2929C30.0976 28.6834 30.0976 29.3166 29.7071 29.7071C29.3166 30.0976 28.6834 30.0976 28.2929 29.7071L21.4582 22.8724C19.1847 24.8221 16.2299 26 13 26C5.8203 26 0 20.1797 0 13Z" fill="#1a1a1a"/>
</svg>
